<?xml version="1.0" encoding="UTF-8" standalone="no"?>
<!DOCTYPE svg PUBLIC "-//W3C//DTD SVG 1.1//EN" "http://www.w3.org/Graphics/SVG/1.1/DTD/svg11.dtd">
<svg width="100%" height="100%" viewBox="0 0 500 350" version="1.1" xmlns="http://www.w3.org/2000/svg" xmlns:xlink="http://www.w3.org/1999/xlink" xml:space="preserve" style="fill-rule:evenodd;clip-rule:evenodd;stroke-linejoin:round;stroke-miterlimit:1.41421;">
    <g transform="matrix(0.75,0,0,0.75,-13.1855,-36.3682)">
        <g transform="matrix(1,0,0,1,43.5207,101.576)">
            <path d="M135.819,121.559L163.101,167.332L146.085,167.332L120.351,122.684L114.515,122.684L109.03,167.332L92.929,167.332L106.288,58.77L127.593,58.77C134.53,58.77 140.038,59.403 144.116,60.668C148.147,61.84 151.663,63.996 154.663,67.137C160.335,72.95 163.171,80.45 163.171,89.637C163.171,106.465 154.054,117.106 135.819,121.559ZM120.491,73.746L116.272,108.621L123.655,108.621C129.093,108.621 133.147,108.106 135.819,107.075C138.679,106.043 141.069,104.286 142.991,101.801C145.616,98.332 146.929,94.254 146.929,89.567C146.929,84.082 145.347,80.075 142.183,77.543C139.019,75.012 134.038,73.746 127.241,73.746L120.491,73.746Z" style="fill:black;fill-rule:nonzero;"/>
            <path d="M247.405,101.098L239.249,167.332L223.71,167.332L224.624,160.161C217.968,165.973 211.077,168.879 203.952,168.879C195.187,168.879 188.038,165.903 182.507,159.95C176.976,153.996 174.21,146.286 174.21,136.817C174.21,125.895 177.374,116.942 183.702,109.957C190.124,102.973 198.351,99.481 208.382,99.481C213.116,99.481 217.147,100.254 220.476,101.801C223.851,103.348 227.296,106.02 230.812,109.817L231.866,101.098L247.405,101.098ZM228.491,132.317C228.491,126.457 226.804,121.7 223.429,118.043C220.054,114.34 215.694,112.489 210.351,112.489C204.538,112.489 199.663,114.762 195.726,119.309C191.788,123.903 189.819,129.528 189.819,136.184C189.819,141.996 191.46,146.754 194.741,150.457C198.022,154.161 202.241,156.012 207.397,156.012C213.116,156.012 218.062,153.692 222.233,149.051C226.405,144.317 228.491,138.739 228.491,132.317Z" style="fill:black;fill-rule:nonzero;"/>
            <path d="M342.257,48.575L327.632,167.332L312.163,167.332L313.007,160.231C309.163,163.653 305.835,165.973 303.022,167.192C300.257,168.317 296.835,168.879 292.757,168.879C283.476,168.879 275.882,165.809 269.976,159.668C264.069,153.481 261.116,145.512 261.116,135.762C261.116,125.356 264.351,116.707 270.819,109.817C277.288,102.926 285.421,99.481 295.218,99.481C300.233,99.481 304.452,100.348 307.874,102.082C311.437,103.864 315.163,106.887 319.054,111.153L326.718,48.575L342.257,48.575ZM316.663,131.332C316.663,125.707 314.929,121.161 311.46,117.692C307.991,114.223 303.444,112.489 297.819,112.489C291.726,112.489 286.687,114.762 282.702,119.309C278.718,123.856 276.726,129.598 276.726,136.536C276.726,142.395 278.437,147.106 281.858,150.668C285.28,154.184 289.827,155.942 295.499,155.942C301.405,155.942 306.397,153.551 310.476,148.77C314.601,144.082 316.663,138.27 316.663,131.332Z" style="fill:black;fill-rule:nonzero;"/>
            <path d="M379.03,69.598C379.03,71.848 378.21,73.793 376.569,75.434C374.929,77.075 372.96,77.895 370.663,77.895C368.366,77.895 366.374,77.051 364.687,75.364C363.046,73.582 362.226,71.543 362.226,69.246C362.226,66.95 363.022,65.004 364.616,63.411C366.257,61.77 368.202,60.95 370.452,60.95C372.749,60.95 374.741,61.817 376.429,63.551C378.163,65.239 379.03,67.254 379.03,69.598ZM374.179,101.098L366.022,167.332L350.483,167.332L358.64,101.098L374.179,101.098Z" style="fill:black;fill-rule:nonzero;"/>
            <path d="M460.874,101.098L452.718,167.332L437.179,167.332L438.093,160.161C431.437,165.973 424.546,168.879 417.421,168.879C408.655,168.879 401.507,165.903 395.976,159.95C390.444,153.996 387.679,146.286 387.679,136.817C387.679,125.895 390.843,116.942 397.171,109.957C403.593,102.973 411.819,99.481 421.851,99.481C426.585,99.481 430.616,100.254 433.944,101.801C437.319,103.348 440.765,106.02 444.28,109.817L445.335,101.098L460.874,101.098ZM441.96,132.317C441.96,126.457 440.272,121.7 436.897,118.043C433.522,114.34 429.163,112.489 423.819,112.489C418.007,112.489 413.132,114.762 409.194,119.309C405.257,123.903 403.288,129.528 403.288,136.184C403.288,141.996 404.929,146.754 408.21,150.457C411.491,154.161 415.71,156.012 420.866,156.012C426.585,156.012 431.53,153.692 435.702,149.051C439.874,144.317 441.96,138.739 441.96,132.317Z" style="fill:black;fill-rule:nonzero;"/>
        </g>
        <g transform="matrix(1,0,0,1,89.9367,244.618)">
            <path d="M150.575,58.77L137.216,167.332L121.114,167.332L134.474,58.77L150.575,58.77Z" style="fill:black;fill-rule:nonzero;"/>
            <path d="M184.817,101.098L184.114,107.215C190.255,102.059 196.466,99.481 202.747,99.481C209.216,99.481 214.396,101.286 218.286,104.895C222.083,108.504 223.981,113.426 223.981,119.661C223.981,123.036 223.7,127.067 223.138,131.754L218.708,167.332L203.239,167.332L208.021,128.379C208.208,126.926 208.337,125.637 208.407,124.512C208.478,123.387 208.513,122.379 208.513,121.489C208.513,115.489 205.278,112.489 198.81,112.489C194.825,112.489 191.403,113.707 188.544,116.145C186.2,118.067 184.466,120.411 183.341,123.176C182.731,124.582 182.216,126.305 181.794,128.344C181.372,130.383 180.997,132.739 180.669,135.411L176.731,167.332L161.192,167.332L169.349,101.098L184.817,101.098Z" style="fill:black;fill-rule:nonzero;"/>
            <path d="M263.356,115.512L257.028,167.332L241.489,167.332L247.888,115.512L237.763,115.512L239.521,101.098L249.646,101.098L253.302,71.496C254.239,63.621 256.372,57.832 259.7,54.129C263.028,50.426 267.786,48.575 273.974,48.575C277.724,48.575 282.106,49.77 287.122,52.161L285.435,65.801C282.528,63.457 279.856,62.286 277.419,62.286C274.606,62.286 272.521,63.246 271.161,65.168C269.896,67.09 268.935,70.629 268.278,75.786L265.185,101.098L279.247,101.098L277.489,115.512L263.356,115.512Z" style="fill:black;fill-rule:nonzero;"/>
            <path d="M359.192,101.098L351.036,167.332L335.497,167.332L336.411,160.161C329.755,165.973 322.864,168.879 315.739,168.879C306.974,168.879 299.825,165.903 294.294,159.95C288.763,153.996 285.997,146.286 285.997,136.817C285.997,125.895 289.161,116.942 295.489,109.957C301.911,102.973 310.138,99.481 320.169,99.481C324.903,99.481 328.935,100.254 332.263,101.801C335.638,103.348 339.083,106.02 342.599,109.817L343.653,101.098L359.192,101.098ZM340.278,132.317C340.278,126.457 338.591,121.7 335.216,118.043C331.841,114.34 327.481,112.489 322.138,112.489C316.325,112.489 311.45,114.762 307.513,119.309C303.575,123.903 301.606,129.528 301.606,136.184C301.606,141.996 303.247,146.754 306.528,150.457C309.81,154.161 314.028,156.012 319.185,156.012C324.903,156.012 329.849,153.692 334.021,149.051C338.192,144.317 340.278,138.739 340.278,132.317Z" style="fill:black;fill-rule:nonzero;"/>
            <path d="M402.856,48.575L388.302,167.332L372.763,167.332L387.388,48.575L402.856,48.575Z" style="fill:black;fill-rule:nonzero;"/>
        </g>
        <g transform="matrix(1,0,0,1,-10.0859,-18.1758)">
            <path d="M543.098,168.327L509.261,435.836L546.622,366.537L532.953,366.537L558.145,168.327L543.098,168.327Z" style="fill:black;"/>
        </g>
    </g>
</svg>
